<svg xmlns="http://www.w3.org/2000/svg" width="20.329" height="23.929" viewBox="0 0 20.329 23.929">
  <g id="Icon_ionic-ios-body" data-name="Icon ionic-ios-body" transform="translate(-4.5 -2.25)">
    <path id="路径_69" data-name="路径 69" d="M20.423,5.149a2.9,2.9,0,1,1-2.9-2.9A2.9,2.9,0,0,1,20.423,5.149Z" transform="translate(-2.86)"/>
    <path id="路径_70" data-name="路径 70" d="M23.558,10.125H5.771a1.227,1.227,0,1,0,0,2.452h5.215a1.115,1.115,0,0,1,.911.725,5.856,5.856,0,0,1-.026,2.641l-.2,1.093a.018.018,0,0,1-.005.015h0l-1.609,8.8a1.231,1.231,0,0,0,1.032,1.42,1.254,1.254,0,0,0,1.461-1l1.112-6.126v.01s.328-1.66.979-1.66H14.7c.662,0,.979,1.66.979,1.66v-.005l1.112,6.126a1.263,1.263,0,0,0,1.466.991,1.228,1.228,0,0,0,1.027-1.42l-1.609-8.8h0a.018.018,0,0,0-.005-.015l-.2-1.093a5.856,5.856,0,0,1-.026-2.641,1.115,1.115,0,0,1,.911-.725h5.209a1.227,1.227,0,1,0,0-2.452Z" transform="translate(0 -1.111)"/>
  </g>
</svg>
