<svg xmlns="http://www.w3.org/2000/svg" width="23.353" height="23.353" viewBox="0 0 23.353 23.353">
  <path id="路径_74" data-name="路径 74" d="M5.595,9.487a1.3,1.3,0,1,0,2.595,0v-1.3h1.3a1.3,1.3,0,1,0,0-2.595h-1.3V4.3a1.3,1.3,0,0,0-2.595,0v1.3H4.3a1.3,1.3,0,0,0,0,2.595h1.3ZM22.46,5.595H14.676a1.3,1.3,0,0,0,0,2.595H22.46a1.3,1.3,0,0,1,1.3,1.3V22.1l-2.037-1.881a1.3,1.3,0,0,0-.882-.35H9.487a1.3,1.3,0,0,1-1.3-1.3V14.676a1.3,1.3,0,0,0-2.595,0v3.892A3.892,3.892,0,0,0,9.487,22.46H20.333L24.225,26a1.3,1.3,0,0,0,.83.35,1.427,1.427,0,0,0,.519-.1,1.3,1.3,0,0,0,.778-1.194V9.487A3.892,3.892,0,0,0,22.46,5.595Z" transform="translate(-3 -3)"/>
</svg>
