<svg xmlns="http://www.w3.org/2000/svg" width="18.221" height="30.281" viewBox="0 0 18.221 30.281">
  <g id="组_13" data-name="组 13" transform="translate(-132.15 -51.95)">
    <path id="路径_66" data-name="路径 66" d="M135.712,75.274h2.77v5.1a1.613,1.613,0,0,0,1.611,1.611h2.334a1.613,1.613,0,0,0,1.611-1.611v-5.1h2.77a3.312,3.312,0,0,0,3.312-3.312V55.512a3.312,3.312,0,0,0-3.312-3.312h-11.1a3.312,3.312,0,0,0-3.312,3.312V71.969A3.311,3.311,0,0,0,135.712,75.274Zm7.084,5.1a.377.377,0,0,1-.376.376h-2.334a.378.378,0,0,1-.376-.376v-5.1h.09V73.4a.378.378,0,0,1,.376-.376h2.243a.378.378,0,0,1,.376.376Zm-9.169-24.865a2.085,2.085,0,0,1,2.085-2.085H146.8a2.085,2.085,0,0,1,2.085,2.085V71.969a2.085,2.085,0,0,1-2.085,2.085h-2.688V73.4a1.613,1.613,0,0,0-1.611-1.611h-2.424a1.613,1.613,0,0,0-1.611,1.611v.655H135.7a2.085,2.085,0,0,1-2.085-2.085V55.512Z" stroke="#000" stroke-width="0.5"/>
    <path id="路径_67" data-name="路径 67" d="M167.678,100.307h8.552a2.082,2.082,0,0,0,2.078-2.078V89.678A2.082,2.082,0,0,0,176.23,87.6h-8.552a2.082,2.082,0,0,0-2.078,2.078V98.23A2.082,2.082,0,0,0,167.678,100.307Zm-.851-10.63a.855.855,0,0,1,.851-.851h8.552a.855.855,0,0,1,.851.851V98.23a.855.855,0,0,1-.851.851h-8.552a.855.855,0,0,1-.851-.851Zm1.445,10.991a1.641,1.641,0,1,0,1.641,1.641A1.645,1.645,0,0,0,168.272,100.669Zm0,2.063a.414.414,0,1,1,.414-.414A.413.413,0,0,1,168.272,102.732Zm7.363-2.063a1.641,1.641,0,1,0,1.641,1.641A1.645,1.645,0,0,0,175.635,100.669Zm0,2.063a.414.414,0,1,1,.414-.414A.418.418,0,0,1,175.635,102.732Z" transform="translate(-30.701 -32.735)" stroke="#000" stroke-width="0.5"/>
    <path id="路径_68" data-name="路径 68" d="M194.021,116.917l3-3c.557-.557-.309-1.43-.866-.866l-3,3A.612.612,0,0,0,194.021,116.917Zm1.5,3.38,4.826-4.826c.557-.557-.309-1.43-.866-.866l-4.826,4.826A.612.612,0,0,0,195.519,120.3Z" transform="translate(-56.013 -56.105)" stroke="#000" stroke-width="0.5"/>
  </g>
</svg>
