<svg id="Group_32" data-name="Group 32" xmlns="http://www.w3.org/2000/svg" xmlns:xlink="http://www.w3.org/1999/xlink" width="253.198" height="253.198" viewBox="0 0 253.198 253.198">
  <defs>
    <linearGradient id="linear-gradient" x1="0.5" x2="0.5" y2="1" gradientUnits="objectBoundingBox">
      <stop offset="0" stop-color="#4f6ea2"/>
      <stop offset="0.548" stop-color="#a5bfd4"/>
      <stop offset="1" stop-color="#d9928b"/>
      <stop offset="1" stop-color="#e3897d"/>
    </linearGradient>
  </defs>
  <path id="Path_269" data-name="Path 269" d="M126.6,0A126.6,126.6,0,1,1,0,126.6,126.6,126.6,0,0,1,126.6,0Z" fill="url(#linear-gradient)"/>
  <g id="Iconly_Bold_Heart" data-name="Iconly/Bold/Heart" transform="translate(39.418 51.651)">
    <g id="Heart" transform="translate(2 2.5)">
      <path id="Path_268" data-name="Path 268" d="M53.493,0a53.174,53.174,0,0,1,15.6,2.812h.5a2.976,2.976,0,0,1,.767.5,30.031,30.031,0,0,1,5.366,2.223h0l3.237,1.448c1.278.681,2.811,1.951,3.663,2.47a25.9,25.9,0,0,1,2.555,1.61A53.358,53.358,0,0,1,117.975,0a49.763,49.763,0,0,1,15.844,2.472c31.44,10.222,42.769,44.72,33.305,74.873a108.416,108.416,0,0,1-25.631,40.963,327.568,327.568,0,0,1-53.928,42.249h0l-2.13,1.286-2.215-1.371A324.484,324.484,0,0,1,28.97,118.224,110.161,110.161,0,0,1,3.322,77.346C-6.3,47.192,5.026,12.694,36.806,2.294A38.5,38.5,0,0,1,44.379.514H45.4A49.392,49.392,0,0,1,52.556,0h.937Zm75.9,26.918a6.821,6.821,0,0,0-8.6,4.259,6.967,6.967,0,0,0,4.259,8.765,14.262,14.262,0,0,1,9.114,13.373h0v.264a7.321,7.321,0,0,0,1.618,5.281,7.138,7.138,0,0,0,4.855,2.47,7,7,0,0,0,6.729-6.482h0V53.836A28.111,28.111,0,0,0,129.389,26.919Z" transform="translate(0 0)" fill="#fdfdfd"/>
    </g>
  </g>
</svg>