<svg xmlns="http://www.w3.org/2000/svg" width="47.483" height="47.496" viewBox="0 0 47.483 47.496">
  <path id="Icon_ionic-ios-settings" data-name="Icon ionic-ios-settings" d="M48.063,28.242a6.11,6.11,0,0,1,3.92-5.7,24.22,24.22,0,0,0-2.931-7.061,6.192,6.192,0,0,1-2.485.532A6.1,6.1,0,0,1,40.99,7.431,24.146,24.146,0,0,0,33.942,4.5a6.1,6.1,0,0,1-11.4,0A24.22,24.22,0,0,0,15.48,7.431,6.1,6.1,0,0,1,9.9,16.012a5.991,5.991,0,0,1-2.485-.532A24.755,24.755,0,0,0,4.5,22.554a6.108,6.108,0,0,1,.012,11.4,24.219,24.219,0,0,0,2.931,7.061,6.1,6.1,0,0,1,8.05,8.05A24.361,24.361,0,0,0,22.554,52,6.094,6.094,0,0,1,33.93,52a24.22,24.22,0,0,0,7.061-2.931,6.105,6.105,0,0,1,8.05-8.05,24.361,24.361,0,0,0,2.931-7.061A6.139,6.139,0,0,1,48.063,28.242Zm-19.71,9.88a9.892,9.892,0,1,1,9.892-9.892A9.89,9.89,0,0,1,28.353,38.122Z" transform="translate(-4.5 -4.5)" fill="#fff"/>
</svg>
