<svg xmlns="http://www.w3.org/2000/svg" width="32.355" height="36.25" viewBox="0 0 32.355 36.25">
  <g id="组_7" data-name="组 7" transform="translate(-47.79 -759)">
    <g id="Icon_ionic-ios-podium" data-name="Icon ionic-ios-podium" transform="translate(47.79 774.778)">
      <path id="路径_45" data-name="路径 45" d="M4.5,13.975V26.506c0,.265.295.475.666.475h8.106c.371,0,.666-.211.666-.475V13.975c0-.265-.295-.475-.666-.475H5.166C4.795,13.5,4.5,13.711,4.5,13.975Z" transform="translate(-4.5 -6.51)"/>
      <path id="路径_46" data-name="路径 46" d="M14.166,6.75c-.371,0-.666.224-.666.505V27.222H23.62c.371,0,.666-.224.666-.505V7.255c0-.281-.295-.505-.666-.505Z" transform="translate(-2.715 -6.75)"/>
      <path id="路径_47" data-name="路径 47" d="M32.4,18H24.291c-.371,0-.666.224-.666.505V27.73c0,.281.295.505.666.505H32.4c.371,0,.666-.224.666-.505V18.505C33.062,18.224,32.767,18,32.4,18Z" transform="translate(-0.707 -7.764)"/>
    </g>
    <g id="Iconly_Bold_Star" data-name="Iconly/Bold/Star" transform="translate(56.879 759)">
      <g id="Star" transform="translate(0 0)">
        <path id="路径_48" data-name="路径 48" d="M11.283,8.378a.78.78,0,0,0-.226.688l.63,3.487a.766.766,0,0,1-.319.765.78.78,0,0,1-.829.057L7.4,11.738a.8.8,0,0,0-.354-.093H6.853a.575.575,0,0,0-.191.064l-3.14,1.645a.828.828,0,0,1-.5.078.788.788,0,0,1-.631-.9l.631-3.487a.793.793,0,0,0-.226-.694L.233,5.869a.765.765,0,0,1-.191-.8.8.8,0,0,1,.63-.532L4.2,4.025a.788.788,0,0,0,.624-.432L6.371.411A.738.738,0,0,1,6.513.22L6.577.17A.476.476,0,0,1,6.691.078L6.768.05,6.889,0h.3a.793.793,0,0,1,.624.425L9.384,3.594a.788.788,0,0,0,.588.432l3.523.511a.8.8,0,0,1,.645.532.77.77,0,0,1-.206.8Z" transform="translate(0 0)"/>
      </g>
    </g>
  </g>
</svg>
