<svg xmlns="http://www.w3.org/2000/svg" width="34.611" height="36" viewBox="0 0 34.611 36">
  <g id="Iconly_Bold_Home" data-name="Iconly/Bold/Home" transform="translate(-2.5 -2)">
    <g id="Home" transform="translate(2.5 2)">
      <path id="路径_49" data-name="路径 49" d="M12.086,33.792v-5.5a2.569,2.569,0,0,1,2.593-2.544h5.236a2.619,2.619,0,0,1,1.834.745,2.519,2.519,0,0,1,.76,1.8v5.5a2.171,2.171,0,0,0,.649,1.56A2.256,2.256,0,0,0,24.743,36h3.572a6.344,6.344,0,0,0,4.451-1.8,6.1,6.1,0,0,0,1.845-4.361V14.16a4.43,4.43,0,0,0-1.631-3.424L20.829,1.217a5.7,5.7,0,0,0-7.193.128L1.762,10.736A4.436,4.436,0,0,0,0,14.16V29.824A6.237,6.237,0,0,0,6.3,36H9.786a2.23,2.23,0,0,0,2.251-2.192Z" transform="translate(0 0)" fill="#9fc0d6"/>
    </g>
  </g>
</svg>
