<svg xmlns="http://www.w3.org/2000/svg" width="32.41" height="36" viewBox="0 0 32.41 36">
  <path id="路径_44" data-name="路径 44" d="M34.878,28.478l-4.356-4.356a1.8,1.8,0,0,0-2.556,0l-6.444,6.444A1.8,1.8,0,0,0,21,31.844V36.2A1.8,1.8,0,0,0,22.8,38h4.356a1.8,1.8,0,0,0,1.278-.522l6.444-6.444a1.8,1.8,0,0,0,0-2.556ZM26.4,34.4H24.6V32.6l4.644-4.644,1.8,1.8Zm-10.8,0H8.4a1.8,1.8,0,0,1-1.8-1.8V7.4A1.8,1.8,0,0,1,8.4,5.6h9V11a5.4,5.4,0,0,0,5.4,5.4h5.4v1.8a1.8,1.8,0,0,0,3.6,0V14.492a2.358,2.358,0,0,0-.108-.486v-.162a1.926,1.926,0,0,0-.342-.5h0L20.55,2.54h0a1.926,1.926,0,0,0-.5-.342.576.576,0,0,0-.162,0L19.308,2H8.4A5.4,5.4,0,0,0,3,7.4V32.6A5.4,5.4,0,0,0,8.4,38h7.2a1.8,1.8,0,0,0,0-3.6ZM21,8.138,25.662,12.8H22.8A1.8,1.8,0,0,1,21,11ZM12,23.6H22.8a1.8,1.8,0,1,0,0-3.6H12a1.8,1.8,0,0,0,0,3.6Zm0-7.2h1.8a1.8,1.8,0,0,0,0-3.6H12a1.8,1.8,0,0,0,0,3.6Zm3.6,10.8H12a1.8,1.8,0,0,0,0,3.6h3.6a1.8,1.8,0,0,0,0-3.6Z" transform="translate(-3 -2)" fill="#466fa6"/>
</svg>
