<svg xmlns="http://www.w3.org/2000/svg" xmlns:xlink="http://www.w3.org/1999/xlink" width="275" height="273" viewBox="0 0 275 273">
  <defs>
    <linearGradient id="linear-gradient" x1="0.5" x2="0.5" y2="1" gradientUnits="objectBoundingBox">
      <stop offset="0" stop-color="#eac3b1"/>
      <stop offset="1" stop-color="#e3897d"/>
    </linearGradient>
    <filter id="Path_80" x="90.979" y="22.973" width="93.041" height="239.181" filterUnits="userSpaceOnUse">
      <feOffset dy="3" input="SourceAlpha"/>
      <feGaussianBlur stdDeviation="3" result="blur"/>
      <feFlood flood-opacity="0.161"/>
      <feComposite operator="in" in2="blur"/>
      <feComposite in="SourceGraphic"/>
    </filter>
    <filter id="Path_244" x="174.459" y="139.648" width="93.041" height="122.505" filterUnits="userSpaceOnUse">
      <feOffset dy="3" input="SourceAlpha"/>
      <feGaussianBlur stdDeviation="3" result="blur-2"/>
      <feFlood flood-opacity="0.161"/>
      <feComposite operator="in" in2="blur-2"/>
      <feComposite in="SourceGraphic"/>
    </filter>
    <filter id="Path_243" x="8.479" y="96.447" width="93.041" height="165.706" filterUnits="userSpaceOnUse">
      <feOffset dy="3" input="SourceAlpha"/>
      <feGaussianBlur stdDeviation="3" result="blur-3"/>
      <feFlood flood-opacity="0.161"/>
      <feComposite operator="in" in2="blur-3"/>
      <feComposite in="SourceGraphic"/>
    </filter>
    <filter id="Rectangle_51" x="0" y="248" width="275" height="25" filterUnits="userSpaceOnUse">
      <feOffset dy="3" input="SourceAlpha"/>
      <feGaussianBlur stdDeviation="3" result="blur-4"/>
      <feFlood flood-opacity="0.161"/>
      <feComposite operator="in" in2="blur-4"/>
      <feComposite in="SourceGraphic"/>
    </filter>
  </defs>
  <g id="Group_33" data-name="Group 33" transform="translate(-50 -277)">
    <g transform="matrix(1, 0, 0, 1, 50, 277)" filter="url(#Path_80)">
      <path id="Path_80-2" data-name="Path 80" d="M4.5,21.3V226.88c0,4.345,2.345,7.8,5.293,7.8H74.248c2.948,0,5.293-3.456,5.293-7.8V21.3c0-4.345-2.345-7.8-5.293-7.8H9.793C6.845,13.5,4.5,16.956,4.5,21.3Z" transform="translate(95.48 15.47)" fill="url(#linear-gradient)"/>
    </g>
    <text id="USER_2" data-name="USER 2" transform="translate(103 369)" fill="#4f4f4f" font-size="18" font-family="Poppins-Bold, Poppins" font-weight="700"><tspan x="-29.664" y="0">USER 2</tspan></text>
    <g transform="matrix(1, 0, 0, 1, 50, 277)" filter="url(#Path_244)">
      <path id="Path_244-2" data-name="Path 244" d="M4.5,17.186V114.32c0,2.053,2.345,3.686,5.293,3.686H74.248c2.948,0,5.293-1.633,5.293-3.686V17.186c0-2.053-2.345-3.686-5.293-3.686H9.793C6.845,13.5,4.5,15.133,4.5,17.186Z" transform="translate(178.96 132.15)" fill="url(#linear-gradient)"/>
    </g>
    <g transform="matrix(1, 0, 0, 1, 50, 277)" filter="url(#Path_243)">
      <path id="Path_243-2" data-name="Path 243" d="M4.5,18.709V156a5.221,5.221,0,0,0,5.293,5.209H74.248A5.221,5.221,0,0,0,79.541,156V18.709A5.221,5.221,0,0,0,74.248,13.5H9.793A5.221,5.221,0,0,0,4.5,18.709Z" transform="translate(12.98 88.95)" fill="url(#linear-gradient)"/>
    </g>
    <g transform="matrix(1, 0, 0, 1, 50, 277)" filter="url(#Rectangle_51)">
      <rect id="Rectangle_51-2" data-name="Rectangle 51" width="257" height="7" rx="2" transform="translate(9 254)" fill="#193773"/>
    </g>
    <text id="_2nd" data-name="2nd" transform="translate(77 499)" fill="#2b3240" font-size="26" font-family="Poppins-Bold, Poppins" font-weight="700"><tspan x="0" y="0">2nd</tspan></text>
    <text id="_3rd" data-name="3rd" transform="translate(246 499)" fill="#2b3240" font-size="26" font-family="Poppins-Bold, Poppins" font-weight="700"><tspan x="0" y="0">3rd</tspan></text>
    <text id="_1st" data-name="1st" transform="translate(169 498)" fill="#2b3240" font-size="26" font-family="Poppins-Bold, Poppins" font-weight="700"><tspan x="0" y="0">1st</tspan></text>
    <text id="USER_1" data-name="USER 1" transform="translate(188 296)" fill="#4f4f4f" font-size="18" font-family="Poppins-Bold, Poppins" font-weight="700"><tspan x="-27.909" y="0">USER 1</tspan></text>
    <text id="USER_3" data-name="USER 3" transform="translate(271 413)" fill="#4f4f4f" font-size="18" font-family="Poppins-Bold, Poppins" font-weight="700"><tspan x="-29.97" y="0">USER 3</tspan></text>
  </g>
</svg>
